<svg width="552" height="567" viewBox="0 0 552 567" fill="none" xmlns="http://www.w3.org/2000/svg">
<path d="M262.5 471.6C368.981 471.6 455.3 385.28 455.3 278.8C455.3 172.319 368.981 86 262.5 86C156.02 86 69.7 172.319 69.7 278.8C69.7 385.28 156.02 471.6 262.5 471.6Z" fill="white"/>
<g opacity="0.8">
<path d="M355.6 304.1L353.6 298L322.6 202.5L320.7 196.5L320.1 194.6H203.2L202.6 196.5L200.7 202.5L169.7 298L167.8 304L167.2 305.9L168.7 307L173.9 310.7L255.1 369.7L260.2 373.4L261.8 374.6L263.3 373.5L268.5 369.8L349.7 310.8L354.9 307L356.4 305.9L355.8 304.1H355.6ZM267.3 368.7C265.8 367.3 263.8 366.4 261.6 366.4C259.4 366.4 257.4 367.3 255.9 368.7L174.5 309.5C175 308.4 175.3 307.2 175.3 305.9C175.3 302.7 173.5 300 170.9 298.6L202 202.9C202.4 202.9 202.7 202.9 203.1 202.9C207.2 202.9 210.6 200 211.2 196.1H311.9C312.6 200 316 202.9 320.1 202.9C324.2 202.9 320.9 202.9 321.2 202.9L352.3 298.6C349.7 300 347.9 302.7 347.9 305.9C347.9 309.1 348.2 308.4 348.7 309.5L267.3 368.7Z" fill="url(#paint0_linear_2_2)"/>
</g>
<path d="M407 328.5V322.5L406.9 321.2L405.5 240V239.1L405.4 233.9V233.1L405 232.4L402.3 227.9L401.4 226.4L360.5 158.3L359.6 156.8L356.1 151V150.8C356 150.8 355.6 150.8 355.6 150.8L347.6 148.5L345.5 147.9L271.2 126.6L268.6 125.8L261.2 123.7L260.6 123.5H260.4H260.2L259.6 123.7L252.2 125.9L250 126.6L185.9 146L179.5 148L174.1 149.6L173.7 149.8L173.5 150.1L170.4 155.1L169.1 157.3L128.6 223.2L128.4 223.4L124.5 229.7L124.3 230.1V230.3C124.2 230.3 124.1 230.3 124.1 230.3V231.1L123.8 236.6V238.8C123.7 238.8 119.2 316 119.2 316V317.8C119.1 317.8 118.7 324.4 118.7 324.4V324.6L118.9 324.8L124 331.5L124.3 331.9L167.1 387.5L168.6 389.5L171.8 393.6L172.2 394.2V394.3L172.9 394.6L177.6 396.8L178.8 397.3L252.1 430.9L254 431.8L259.5 434.3H259.8C259.8 434.4 260.1 434.6 260.1 434.6H260.4C260.4 434.5 267.1 431.9 267.1 431.9L268.3 431.4L344.1 401.8L346 401L350.8 399.1L351.5 398.8H351.6V398.7L352.1 398.1L355.3 394L356.5 392.5L401.1 336.2L403.2 333.5L406.7 329.1V328.9C406.8 328.9 407 328.7 407 328.7V328.5ZM353 392.2L352.4 393L349.8 396.3L345.9 397.8L344.9 398.2L267.2 428.6L260.2 431.3L253.4 428.2L178.9 394.1L177.8 393.6L174.1 391.9L171.4 388.3L170.9 387.7L126.3 329.7L122.5 324.8L121.6 323.7V322L122 316.1L126.5 238.9L126.7 235.8L127 231.1L129.3 227.3L131 224.5L172.8 156.4L174.6 153.5L175.5 152L176.8 151.6L180.4 150.5L253.1 128.5L256.3 127.5L260.5 126.2L264.8 127.4L268 128.3L347 151L352.7 152.6L354.3 153.1L355.1 154.4L358.2 159.6L400 229.2L400.5 230L402.7 233.7V238V238.9L404.1 322.4V325.8V327.6L403.3 328.7L400.9 331.7L353 392.1V392.2Z" fill="url(#paint1_linear_2_2)"/>
<path d="M405.3 232.4H405C405 232.3 402.1 230.9 402.1 230.9L400.3 230.1L399.5 229.7L328.1 196.7L322.4 194.1L321.3 193.6H321C321 193.5 320.8 193.2 320.8 193.2L320.1 192.4L316 187.5L266.9 130L264.8 127.5L263.7 126.3L261.3 123.5V123.3C261.2 123.3 260.5 122.5 260.5 122.5L259.8 123.3L259.6 123.5L257.3 126.3L256.2 127.6L254.1 130.2L207.1 187.5L203.2 192.3L202.4 193.3L202.2 193.6H201.9C201.9 193.7 201 194.2 201 194.2L195.1 196.9L132.2 226L129.2 227.4L127.3 228.3L124.4 229.6H124.1C124.1 229.7 123.4 230.1 123.4 230.1L123.8 230.7L124 231.1L125.4 233.7L126.6 235.9L128.1 238.6L161.8 299.6L164.9 305.3L165.4 306.2V306.5C165.5 306.5 165.6 306.9 165.6 306.9V308.2L166.1 314.3L171.2 387.7V388.5L171.4 390.5L171.6 393.8V394.1V395L172.4 394.8H172.8L175.7 394.1L177.6 393.7L178.8 393.5L253.9 377.9L261.2 376.4H261.5H261.8L269 378.3L344.7 397.7L345.8 398L347.6 398.5L350.6 399.3H350.9L351.8 399.6V398.6V398.3L352 395.1V393.2C352.1 393.2 352.2 392.2 352.2 392.2L356.9 314.4L357.3 308.4V307L357.4 306.7L357.6 306.4L358.2 305.6L361.7 300.2L401.9 239.3L402.4 238.5L403.6 236.7L405.2 234.2L405.4 233.9L405.9 233.2L405.1 232.8L405.3 232.4ZM359.5 298.3L356.7 302.6L355.7 304.2L354.9 305.5V307.1L354.7 309L354.4 314L349.7 391.8L349.5 395.7L345.7 394.7L270 375.3L265.1 374L263.3 373.5L262.1 373.2H261.8L260.2 373.5L258.3 373.9L253.6 374.9L178.5 390.5L174.6 391.3L174.3 387.3L169.2 313.9L168.9 308.9V307C168.8 307 168.7 305.8 168.7 305.8V305.5L167.9 304L166.9 302.3L164.6 298.1L130.9 237.1L127.7 231.3L133.7 228.5L196.6 199.4L201 197.4L202.8 196.6L204 196H204.3C204.3 195.9 205.3 194.7 205.3 194.7L206.5 193.2L209.7 189.3L256.7 132L260.8 127.1L265 132L314.1 189.5L317.3 193.3L318.5 194.8L319.3 195.8L319.5 196L321 196.7L322.8 197.5L327.2 199.5L398.6 232.5L402.2 234.2L400 237.5L359.8 298.4L359.5 298.3Z" fill="url(#paint2_linear_2_2)"/>
<path d="M424.8 273.7L407.8 237.9L405.7 233.5L405.5 233V232.8V232.3L404.7 227.5L398 183.7L397 177.5L391.7 174L362.8 155L356.3 150.7L356 150.5H355.8C355.8 150.4 349.1 146.2 349.1 146.2L318.5 127L313.4 123.8H307.3L268.7 123.3H261.2H260.7H260.5H260.3H259.8L252.3 123.4L223.6 123.8H217.6L212.4 126.9L178.7 146.6L174 149.3L173.6 149.5L173.4 149.7L169.2 153.1L138.5 177.4L133.6 181.2L132.4 187.3L125.6 222.2L124.2 229.5V230L124 230.5L120.2 236.8L101 268.7L97.7 274.2L100.2 280.1L115.8 317.1L118.8 324.3V324.5L119 324.7L121.5 332.2L132.1 363.8L134.1 369.7L139.3 373L167.8 391.2L172 393.8L172.4 394.1V394.2L172.8 394.6L176 398.2L206 431.8L209.8 436L210.3 436.5L216.7 436.2L252.4 434.6L260.2 434.2H260.4H260.7L268.5 434.6L304.2 436.2L310.5 436.5L315.1 432.3L347.8 402.3L351.4 399L351.8 398.6V398.5L352.2 398.2L356.4 395.8L383.9 380.2L389.3 377.1L391.4 371.3L405.1 333.9L407 328.8V328.6L407.2 328.3L409.3 323.4L425.3 285.1L427.7 279.3L425 273.6L424.8 273.7ZM406.9 321.2L406.4 322.4L404.8 326.2L404.2 327.7L403.7 329L402.2 333L401 336.2L388.5 370.4L386.7 375.2L382.2 377.7L356.3 392.4L354.7 393.3L352.1 394.8L349.8 396.1L347.6 398.1L345.4 400.1L343.9 401.5L312.7 430L309 433.4L303.9 433.2L268.2 431.6H266.9L259.9 431.2L253.9 431.5H251.8L216.1 433.2L211.1 433.4L207.8 429.7L178.7 397.1L177.8 396.1L175.7 393.8L174 391.9L171.3 390.1L168.9 388.6L166.8 387.2L140.4 370.4L136.1 367.6L134.5 362.7L124.1 331.6L123.9 331.1L121.8 324.7L121.3 323.3L120.8 322L118.9 317.5L118.2 315.8L102.6 278.8L100.7 274.3L103.2 270.1L122.4 238.2L123.5 236.3L125.3 233.4L126.6 231.2L127.2 228L128.2 223V222.7L135.1 187.8L136.1 182.8L140.1 179.6L168.8 156.8L170.8 155.2L174 152.7L175.1 151.8L176.4 151L180 148.9L185.8 145.5L213.7 129.2L218.3 126.5H223.6L250 126H252.3L257.3 125.9H260.4H263.6H268.5H271.2L307.1 126.3H312.4L316.8 129.2L345.6 147.3L347.4 148.5L352.9 152L354.3 152.9L355.4 153.6L359.6 156.4L361.1 157.4L390 176.4L394.2 179.1L395 184.1L401.5 226.1L401.8 227.9L402.2 230.8L402.6 233.5L403.9 236.2L405.2 239L405.6 239.9L422.2 274.9L424.3 279.4L422.4 284L407 321.1L406.9 321.2Z" fill="url(#paint3_linear_2_2)"/>
<path d="M166.347 304.545L119.326 322.689L120.37 325.394L167.391 307.25L166.347 304.545Z" fill="url(#paint4_linear_2_2)"/>
<path d="M356.939 304.86L355.741 307.501L405.1 329.891L406.298 327.25L356.939 304.86Z" fill="url(#paint5_linear_2_2)"/>
<path d="M353.98 150.958L318.943 193.613L321.184 195.454L356.221 152.799L353.98 150.958Z" fill="url(#paint6_linear_2_2)"/>
<path d="M175.593 150.204L173.164 151.788L201.779 195.684L204.209 194.1L175.593 150.204Z" fill="url(#paint7_linear_2_2)"/>
<path d="M357.8 306.1L357.4 304.8L356.7 302.5L355.1 297.6L324 201.9L322.5 197.3L321.7 194.9L321.3 193.5V193.1H202.1V193.5C202 193.5 201.6 194.8 201.6 194.8L200.8 197.3L199.3 201.9L168.2 297.6L166.7 302.2L165.9 304.7L165.5 306V306.4C165.4 306.4 165.7 306.6 165.7 306.6L166.9 307.5L168.8 308.9L172.9 311.8L254.3 371L258.2 373.8L261.4 376.1L261.7 376.3L262 376.1L265.1 373.9L269.2 370.9L350.6 311.7L354.7 308.7L356.5 307.4L357.7 306.5L358 306.3V306L357.8 306.1ZM261.6 372.8L255.9 368.6L174.5 309.4L168.8 305.2L171 298.5L202.1 202.8L204.3 196.1H319.1L321.3 202.8L352.4 298.5L354.6 305.2L348.9 309.4L267.5 368.6L261.8 372.8H261.6Z" fill="url(#paint8_linear_2_2)"/>
<path d="M347.9 305.9C347.9 307.2 348.2 308.4 348.7 309.5L267.3 368.7C265.8 367.3 263.8 366.4 261.6 366.4C259.4 366.4 257.4 367.3 255.9 368.7L174.5 309.5C175 308.4 175.3 307.2 175.3 305.9C175.3 302.7 173.5 300 170.9 298.6L202 202.9C202.4 202.9 202.7 202.9 203.1 202.9C207.2 202.9 210.6 200 211.2 196.1H311.9C312.6 200 316 202.9 320.1 202.9C324.2 202.9 320.9 202.9 321.2 202.9L352.3 298.6C349.7 300 347.9 302.7 347.9 305.9Z" fill="url(#paint9_linear_2_2)"/>
<path d="M269.9 374.6C269.9 374.8 269.9 375 269.9 375.2C269.9 376.2 269.6 377.2 269.2 378C267.9 380.9 265 382.8 261.7 382.8C258.4 382.8 255.2 380.7 254 377.6C253.6 376.7 253.4 375.8 253.4 374.7V374.5C253.4 373.2 253.7 372 254.2 370.9C254.4 370.5 254.7 370 255 369.6C255.3 369.2 255.6 368.8 256 368.5C257.5 367.1 259.5 366.2 261.7 366.2C263.9 366.2 265.9 367.1 267.4 368.5C267.8 368.8 268.1 369.2 268.4 369.6C268.7 370 268.9 370.4 269.1 370.8C269.6 371.9 269.9 373.1 269.9 374.4V374.6Z" fill="url(#paint10_linear_2_2)"/>
<path d="M175.3 305.9C175.3 307.2 175 308.4 174.5 309.5C174.3 309.9 174 310.4 173.7 310.8C173.4 311.2 173.1 311.6 172.7 311.9C171.7 312.9 170.4 313.6 169 314C168.4 314.2 167.7 314.2 167 314.2C166.3 314.2 166.4 314.2 166.1 314.2C163.5 313.9 161.2 312.4 159.9 310.3C159.4 309.5 159 308.6 158.8 307.6C158.8 307.1 158.6 306.6 158.6 306C158.6 303.4 159.8 301.1 161.7 299.6C162.5 299 163.3 298.5 164.3 298.2C165.1 297.9 166 297.8 167 297.8C168 297.8 167.8 297.8 168.1 297.8C168.6 297.8 169.1 298 169.5 298.1C170 298.3 170.4 298.4 170.9 298.7C173.5 300.1 175.3 302.8 175.3 306V305.9Z" fill="url(#paint11_linear_2_2)"/>
<path d="M364.5 305.9C364.5 306.6 364.5 307.3 364.2 307.9C364 308.9 363.5 309.8 363 310.6C361.7 312.5 359.6 313.9 357.1 314.1C356.8 314.1 356.5 314.1 356.1 314.1C355.4 314.1 354.8 314.1 354.1 313.9C352.7 313.5 351.4 312.8 350.3 311.8C349.9 311.5 349.6 311.1 349.3 310.7C349 310.3 348.8 309.9 348.5 309.4C348 308.3 347.7 307.1 347.7 305.8C347.7 302.6 349.5 299.9 352.1 298.5C352.5 298.3 353 298.1 353.4 297.9C353.9 297.7 354.3 297.6 354.8 297.6C355.2 297.6 355.5 297.6 355.9 297.6C357.1 297.6 358.2 297.8 359.2 298.3C360.1 298.7 360.9 299.2 361.6 299.9C363.2 301.4 364.2 303.5 364.2 305.9H364.5Z" fill="url(#paint12_linear_2_2)"/>
<path d="M328.4 194.7C328.4 195.4 328.4 196.1 328.1 196.8C327.8 197.8 327.4 198.7 326.9 199.4C326.2 200.5 325.2 201.3 324 202C323.6 202.2 323.1 202.4 322.6 202.6C322.1 202.7 321.7 202.9 321.2 202.9C320.8 202.9 320.5 202.9 320.1 202.9C316 202.9 312.6 200 311.9 196.1C311.9 195.6 311.8 195.1 311.8 194.6C311.8 194.1 311.8 193.6 311.9 193.1C312.1 191.7 312.8 190.4 313.6 189.3C314.2 188.5 315 187.9 315.8 187.4C317 186.7 318.5 186.3 320 186.3C321.5 186.3 322.8 186.7 324 187.4C324.9 187.9 325.6 188.5 326.3 189.3C327.5 190.7 328.3 192.6 328.3 194.7H328.4Z" fill="url(#paint13_linear_2_2)"/>
<path d="M211.4 194.7C211.4 195.2 211.4 195.7 211.3 196.2C210.6 200.1 207.2 203 203.2 203C199.2 203 202.4 203 202.1 203C201.6 203 201.1 202.8 200.7 202.7C200.2 202.5 199.8 202.4 199.3 202.1C198.2 201.5 197.2 200.6 196.4 199.5C195.8 198.7 195.4 197.8 195.2 196.9C195 196.2 194.9 195.5 194.9 194.8C194.9 192.4 195.9 190.3 197.5 188.8C198.2 188.1 199 187.6 199.9 187.2C200.9 186.8 202 186.5 203.1 186.5C204.2 186.5 205.9 186.9 207.1 187.6C208 188.1 208.7 188.7 209.4 189.5C210.3 190.6 211 191.9 211.3 193.4C211.3 193.9 211.4 194.4 211.4 194.9V194.7Z" fill="url(#paint14_linear_2_2)"/>
<path d="M217.9 131.2C221.103 131.2 223.7 128.603 223.7 125.4C223.7 122.197 221.103 119.6 217.9 119.6C214.697 119.6 212.1 122.197 212.1 125.4C212.1 128.603 214.697 131.2 217.9 131.2Z" fill="url(#paint15_linear_2_2)"/>
<path d="M174.5 156.6C177.703 156.6 180.3 154.003 180.3 150.8C180.3 147.597 177.703 145 174.5 145C171.297 145 168.7 147.597 168.7 150.8C168.7 154.003 171.297 156.6 174.5 156.6Z" fill="url(#paint16_linear_2_2)"/>
<path d="M134.9 188C138.103 188 140.7 185.403 140.7 182.2C140.7 178.997 138.103 176.4 134.9 176.4C131.697 176.4 129.1 178.997 129.1 182.2C129.1 185.403 131.697 188 134.9 188Z" fill="url(#paint17_linear_2_2)"/>
<path d="M99 280.1C102.203 280.1 104.8 277.503 104.8 274.3C104.8 271.097 102.203 268.5 99 268.5C95.7968 268.5 93.2 271.097 93.2 274.3C93.2 277.503 95.7968 280.1 99 280.1Z" fill="url(#paint18_linear_2_2)"/>
<path d="M134.9 374.6C138.103 374.6 140.7 372.003 140.7 368.8C140.7 365.597 138.103 363 134.9 363C131.697 363 129.1 365.597 129.1 368.8C129.1 372.003 131.697 374.6 134.9 374.6Z" fill="url(#paint19_linear_2_2)"/>
<path d="M173 398.8C176.203 398.8 178.8 396.203 178.8 393C178.8 389.797 176.203 387.2 173 387.2C169.797 387.2 167.2 389.797 167.2 393C167.2 396.203 169.797 398.8 173 398.8Z" fill="url(#paint20_linear_2_2)"/>
<path d="M210.5 440.9C213.703 440.9 216.3 438.303 216.3 435.1C216.3 431.897 213.703 429.3 210.5 429.3C207.297 429.3 204.7 431.897 204.7 435.1C204.7 438.303 207.297 440.9 210.5 440.9Z" fill="url(#paint21_linear_2_2)"/>
<path d="M309.6 440.9C312.803 440.9 315.4 438.303 315.4 435.1C315.4 431.897 312.803 429.3 309.6 429.3C306.397 429.3 303.8 431.897 303.8 435.1C303.8 438.303 306.397 440.9 309.6 440.9Z" fill="url(#paint22_linear_2_2)"/>
<path d="M350.6 403.3C353.803 403.3 356.4 400.703 356.4 397.5C356.4 394.297 353.803 391.7 350.6 391.7C347.397 391.7 344.8 394.297 344.8 397.5C344.8 400.703 347.397 403.3 350.6 403.3Z" fill="url(#paint23_linear_2_2)"/>
<path d="M388 382.1C391.203 382.1 393.8 379.503 393.8 376.3C393.8 373.097 391.203 370.5 388 370.5C384.797 370.5 382.2 373.097 382.2 376.3C382.2 379.503 384.797 382.1 388 382.1Z" fill="url(#paint24_linear_2_2)"/>
<path d="M405.6 334C408.803 334 411.4 331.403 411.4 328.2C411.4 324.997 408.803 322.4 405.6 322.4C402.397 322.4 399.8 324.997 399.8 328.2C399.8 331.403 402.397 334 405.6 334Z" fill="url(#paint25_linear_2_2)"/>
<path d="M425.9 285.3C429.103 285.3 431.7 282.703 431.7 279.5C431.7 276.297 429.103 273.7 425.9 273.7C422.697 273.7 420.1 276.297 420.1 279.5C420.1 282.703 422.697 285.3 425.9 285.3Z" fill="url(#paint26_linear_2_2)"/>
<path d="M404 239.2C407.203 239.2 409.8 236.603 409.8 233.4C409.8 230.197 407.203 227.6 404 227.6C400.797 227.6 398.2 230.197 398.2 233.4C398.2 236.603 400.797 239.2 404 239.2Z" fill="url(#paint27_linear_2_2)"/>
<path d="M395.5 184.3C398.703 184.3 401.3 181.703 401.3 178.5C401.3 175.297 398.703 172.7 395.5 172.7C392.297 172.7 389.7 175.297 389.7 178.5C389.7 181.703 392.297 184.3 395.5 184.3Z" fill="url(#paint28_linear_2_2)"/>
<path d="M125.4 238.9C129.984 238.9 133.7 235.184 133.7 230.6C133.7 226.016 129.984 222.3 125.4 222.3C120.816 222.3 117.1 226.016 117.1 230.6C117.1 235.184 120.816 238.9 125.4 238.9Z" fill="url(#paint29_linear_2_2)"/>
<path d="M119.9 332.4C124.484 332.4 128.2 328.684 128.2 324.1C128.2 319.516 124.484 315.8 119.9 315.8C115.316 315.8 111.6 319.516 111.6 324.1C111.6 328.684 115.316 332.4 119.9 332.4Z" fill="url(#paint30_linear_2_2)"/>
<path d="M260 441.2C264.584 441.2 268.3 437.484 268.3 432.9C268.3 428.316 264.584 424.6 260 424.6C255.416 424.6 251.7 428.316 251.7 432.9C251.7 437.484 255.416 441.2 260 441.2Z" fill="url(#paint31_linear_2_2)"/>
<path d="M355.1 160.2C359.684 160.2 363.4 156.484 363.4 151.9C363.4 147.316 359.684 143.6 355.1 143.6C350.516 143.6 346.8 147.316 346.8 151.9C346.8 156.484 350.516 160.2 355.1 160.2Z" fill="url(#paint32_linear_2_2)"/>
<path d="M260.4 133C264.984 133 268.7 129.284 268.7 124.7C268.7 120.116 264.984 116.4 260.4 116.4C255.816 116.4 252.1 120.116 252.1 124.7C252.1 129.284 255.816 133 260.4 133Z" fill="url(#paint33_linear_2_2)"/>
<path d="M312.8 131.2C316.003 131.2 318.6 128.603 318.6 125.4C318.6 122.197 316.003 119.6 312.8 119.6C309.597 119.6 307 122.197 307 125.4C307 128.603 309.597 131.2 312.8 131.2Z" fill="url(#paint34_linear_2_2)"/>
<path d="M192.816 287.3L190.092 278.9H192.54L194.832 286.172H193.596L196.008 278.9H198.192L200.472 286.172H199.284L201.648 278.9H203.916L201.192 287.3H198.648L196.704 281.12H197.388L195.36 287.3H192.816ZM207.719 287.468C207.031 287.468 206.367 287.384 205.727 287.216C205.095 287.04 204.579 286.816 204.179 286.544L204.959 284.792C205.335 285.032 205.767 285.232 206.255 285.392C206.751 285.544 207.243 285.62 207.731 285.62C208.059 285.62 208.323 285.592 208.523 285.536C208.723 285.472 208.867 285.392 208.955 285.296C209.051 285.192 209.099 285.072 209.099 284.936C209.099 284.744 209.011 284.592 208.835 284.48C208.659 284.368 208.431 284.276 208.151 284.204C207.871 284.132 207.559 284.06 207.215 283.988C206.879 283.916 206.539 283.824 206.195 283.712C205.859 283.6 205.551 283.456 205.271 283.28C204.991 283.096 204.763 282.86 204.587 282.572C204.411 282.276 204.323 281.904 204.323 281.456C204.323 280.952 204.459 280.496 204.731 280.088C205.011 279.68 205.427 279.352 205.979 279.104C206.531 278.856 207.219 278.732 208.043 278.732C208.595 278.732 209.135 278.796 209.663 278.924C210.199 279.044 210.675 279.224 211.091 279.464L210.359 281.228C209.959 281.012 209.563 280.852 209.171 280.748C208.779 280.636 208.399 280.58 208.031 280.58C207.703 280.58 207.439 280.616 207.239 280.688C207.039 280.752 206.895 280.84 206.807 280.952C206.719 281.064 206.675 281.192 206.675 281.336C206.675 281.52 206.759 281.668 206.927 281.78C207.103 281.884 207.331 281.972 207.611 282.044C207.899 282.108 208.211 282.176 208.547 282.248C208.891 282.32 209.231 282.412 209.567 282.524C209.911 282.628 210.223 282.772 210.503 282.956C210.783 283.132 211.007 283.368 211.175 283.664C211.351 283.952 211.439 284.316 211.439 284.756C211.439 285.244 211.299 285.696 211.019 286.112C210.747 286.52 210.335 286.848 209.783 287.096C209.239 287.344 208.551 287.468 207.719 287.468ZM211.529 287.3L215.237 278.9H217.577L221.297 287.3H218.825L215.921 280.064H216.857L213.953 287.3H211.529ZM213.557 285.668L214.169 283.916H218.273L218.885 285.668H213.557ZM225.463 287.3V278.9H229.303C230.071 278.9 230.731 279.024 231.283 279.272C231.843 279.52 232.275 279.88 232.579 280.352C232.883 280.816 233.035 281.368 233.035 282.008C233.035 282.64 232.883 283.188 232.579 283.652C232.275 284.116 231.843 284.476 231.283 284.732C230.731 284.98 230.071 285.104 229.303 285.104H226.783L227.839 284.072V287.3H225.463ZM227.839 284.324L226.783 283.232H229.159C229.655 283.232 230.023 283.124 230.263 282.908C230.511 282.692 230.635 282.392 230.635 282.008C230.635 281.616 230.511 281.312 230.263 281.096C230.023 280.88 229.655 280.772 229.159 280.772H226.783L227.839 279.68V284.324ZM232.763 287.3L236.471 278.9H238.811L242.531 287.3H240.059L237.155 280.064H238.091L235.187 287.3H232.763ZM234.791 285.668L235.403 283.916H239.507L240.119 285.668H234.791ZM244.802 287.3V283.748L245.354 285.176L241.598 278.9H244.106L246.818 283.448H245.366L248.09 278.9H250.394L246.65 285.176L247.178 283.748V287.3H244.802Z" fill="white"/>
<path d="M289 526.9V548.9C289 557.1 280.1 562.3 272.9 558.2L232.9 535.1L192.9 512C185.8 507.9 185.8 497.6 192.9 493.4L232.9 470.3L272.9 447.2C280 443.1 289 448.2 289 456.5V491.5C397.4 477.9 480.9 383.1 476.5 270.1C472.2 158.7 381.9 68.4 270.5 64.1C148.3 59.4 47.4 157.4 47.4 278.6C47.4 399.8 48.2 299.9 49.7 310.4C51 319.4 45 328 36.1 330C26 332.3 16.2 325.4 14.7 315.2C12.9 303.1 12 290.9 12 278.6C12 137.5 129.5 23.4 271.8 28.9C401.5 33.9 506.6 139 511.6 268.7C516.8 401.8 417.2 513.2 288.8 527L289 526.9ZM453.3 460.7C439.9 474.2 425.3 486.3 409.5 496.8C402.2 501.6 409 513.4 416.4 508.6C433.2 497.5 448.8 484.7 463 470.4C469.2 464.2 459.5 454.5 453.4 460.8L453.3 460.7ZM527.5 290.5C525.3 332.1 513.6 371.9 493.1 408.1C488.8 415.7 500.5 422.6 504.9 415C526.6 376.7 538.8 334.5 541.2 290.5C541.7 281.7 528 281.8 527.6 290.5H527.5ZM317.6 21.3C381.1 34.5 437.5 70.1 476.4 122.1C481.6 129 493.4 122.3 488.2 115.2C447.2 60.4 388.4 22.2 321.3 8.2C312.7 6.4 309.1 19.6 317.7 21.3H317.6Z" fill="url(#paint35_linear_2_2)"/>
<defs>
<linearGradient id="paint0_linear_2_2" x1="167" y1="284.6" x2="356.2" y2="284.6" gradientUnits="userSpaceOnUse">
<stop stop-color="#782571"/>
<stop offset="0.4" stop-color="#742570"/>
<stop offset="0.7" stop-color="#68256D"/>
<stop offset="1" stop-color="#5B256A"/>
</linearGradient>
<linearGradient id="paint1_linear_2_2" x1="118.4" y1="278.9" x2="407" y2="278.9" gradientUnits="userSpaceOnUse">
<stop stop-color="#782571"/>
<stop offset="0.4" stop-color="#742570"/>
<stop offset="0.7" stop-color="#68256D"/>
<stop offset="1" stop-color="#5B256A"/>
</linearGradient>
<linearGradient id="paint2_linear_2_2" x1="123.4" y1="260.9" x2="406.1" y2="260.9" gradientUnits="userSpaceOnUse">
<stop stop-color="#782571"/>
<stop offset="0.4" stop-color="#742570"/>
<stop offset="0.7" stop-color="#68256D"/>
<stop offset="1" stop-color="#5B256A"/>
</linearGradient>
<linearGradient id="paint3_linear_2_2" x1="97.4" y1="279.9" x2="427.5" y2="279.9" gradientUnits="userSpaceOnUse">
<stop stop-color="#782571"/>
<stop offset="0.4" stop-color="#742570"/>
<stop offset="0.7" stop-color="#68256D"/>
<stop offset="1" stop-color="#5B256A"/>
</linearGradient>
<linearGradient id="paint4_linear_2_2" x1="119.35" y1="315.008" x2="167.45" y2="315.008" gradientUnits="userSpaceOnUse">
<stop stop-color="#782571"/>
<stop offset="0.4" stop-color="#742570"/>
<stop offset="0.7" stop-color="#68256D"/>
<stop offset="1" stop-color="#5B256A"/>
</linearGradient>
<linearGradient id="paint5_linear_2_2" x1="355.953" y1="317.192" x2="406.553" y2="317.192" gradientUnits="userSpaceOnUse">
<stop stop-color="#782571"/>
<stop offset="0.4" stop-color="#742570"/>
<stop offset="0.7" stop-color="#68256D"/>
<stop offset="1" stop-color="#5B256A"/>
</linearGradient>
<linearGradient id="paint6_linear_2_2" x1="318.895" y1="173.336" x2="356.195" y2="173.336" gradientUnits="userSpaceOnUse">
<stop stop-color="#782571"/>
<stop offset="0.4" stop-color="#742570"/>
<stop offset="0.7" stop-color="#68256D"/>
<stop offset="1" stop-color="#5B256A"/>
</linearGradient>
<linearGradient id="paint7_linear_2_2" x1="173.44" y1="172.732" x2="204.44" y2="172.732" gradientUnits="userSpaceOnUse">
<stop stop-color="#782571"/>
<stop offset="0.4" stop-color="#742570"/>
<stop offset="0.7" stop-color="#68256D"/>
<stop offset="1" stop-color="#5B256A"/>
</linearGradient>
<linearGradient id="paint8_linear_2_2" x1="165.3" y1="284.8" x2="357.9" y2="284.8" gradientUnits="userSpaceOnUse">
<stop stop-color="#782571"/>
<stop offset="0.4" stop-color="#742570"/>
<stop offset="0.7" stop-color="#68256D"/>
<stop offset="1" stop-color="#5B256A"/>
</linearGradient>
<linearGradient id="paint9_linear_2_2" x1="170.9" y1="282.4" x2="352.3" y2="282.4" gradientUnits="userSpaceOnUse">
<stop stop-color="#782571"/>
<stop offset="0.4" stop-color="#742570"/>
<stop offset="0.7" stop-color="#68256D"/>
<stop offset="1" stop-color="#5B256A"/>
</linearGradient>
<linearGradient id="paint10_linear_2_2" x1="253.3" y1="374.6" x2="269.9" y2="374.6" gradientUnits="userSpaceOnUse">
<stop stop-color="#782571"/>
<stop offset="0.4" stop-color="#742570"/>
<stop offset="0.7" stop-color="#68256D"/>
<stop offset="1" stop-color="#5B256A"/>
</linearGradient>
<linearGradient id="paint11_linear_2_2" x1="158.7" y1="305.9" x2="175.3" y2="305.9" gradientUnits="userSpaceOnUse">
<stop stop-color="#782571"/>
<stop offset="0.4" stop-color="#742570"/>
<stop offset="0.7" stop-color="#68256D"/>
<stop offset="1" stop-color="#5B256A"/>
</linearGradient>
<linearGradient id="paint12_linear_2_2" x1="347.9" y1="305.9" x2="364.5" y2="305.9" gradientUnits="userSpaceOnUse">
<stop stop-color="#782571"/>
<stop offset="0.4" stop-color="#742570"/>
<stop offset="0.7" stop-color="#68256D"/>
<stop offset="1" stop-color="#5B256A"/>
</linearGradient>
<linearGradient id="paint13_linear_2_2" x1="311.8" y1="194.7" x2="328.4" y2="194.7" gradientUnits="userSpaceOnUse">
<stop stop-color="#782571"/>
<stop offset="0.4" stop-color="#742570"/>
<stop offset="0.7" stop-color="#68256D"/>
<stop offset="1" stop-color="#5B256A"/>
</linearGradient>
<linearGradient id="paint14_linear_2_2" x1="194.8" y1="194.7" x2="211.4" y2="194.7" gradientUnits="userSpaceOnUse">
<stop stop-color="#782571"/>
<stop offset="0.4" stop-color="#742570"/>
<stop offset="0.7" stop-color="#68256D"/>
<stop offset="1" stop-color="#5B256A"/>
</linearGradient>
<linearGradient id="paint15_linear_2_2" x1="212.1" y1="125.4" x2="223.8" y2="125.4" gradientUnits="userSpaceOnUse">
<stop stop-color="#782571"/>
<stop offset="0.4" stop-color="#742570"/>
<stop offset="0.7" stop-color="#68256D"/>
<stop offset="1" stop-color="#5B256A"/>
</linearGradient>
<linearGradient id="paint16_linear_2_2" x1="168.6" y1="150.8" x2="180.3" y2="150.8" gradientUnits="userSpaceOnUse">
<stop stop-color="#782571"/>
<stop offset="0.4" stop-color="#742570"/>
<stop offset="0.7" stop-color="#68256D"/>
<stop offset="1" stop-color="#5B256A"/>
</linearGradient>
<linearGradient id="paint17_linear_2_2" x1="129" y1="182.2" x2="140.7" y2="182.2" gradientUnits="userSpaceOnUse">
<stop stop-color="#782571"/>
<stop offset="0.4" stop-color="#742570"/>
<stop offset="0.7" stop-color="#68256D"/>
<stop offset="1" stop-color="#5B256A"/>
</linearGradient>
<linearGradient id="paint18_linear_2_2" x1="93.2" y1="274.3" x2="104.9" y2="274.3" gradientUnits="userSpaceOnUse">
<stop stop-color="#782571"/>
<stop offset="0.4" stop-color="#742570"/>
<stop offset="0.7" stop-color="#68256D"/>
<stop offset="1" stop-color="#5B256A"/>
</linearGradient>
<linearGradient id="paint19_linear_2_2" x1="129.1" y1="368.8" x2="140.8" y2="368.8" gradientUnits="userSpaceOnUse">
<stop stop-color="#782571"/>
<stop offset="0.4" stop-color="#742570"/>
<stop offset="0.7" stop-color="#68256D"/>
<stop offset="1" stop-color="#5B256A"/>
</linearGradient>
<linearGradient id="paint20_linear_2_2" x1="167.1" y1="393" x2="178.8" y2="393" gradientUnits="userSpaceOnUse">
<stop stop-color="#782571"/>
<stop offset="0.4" stop-color="#742570"/>
<stop offset="0.7" stop-color="#68256D"/>
<stop offset="1" stop-color="#5B256A"/>
</linearGradient>
<linearGradient id="paint21_linear_2_2" x1="204.6" y1="435.1" x2="216.3" y2="435.1" gradientUnits="userSpaceOnUse">
<stop stop-color="#782571"/>
<stop offset="0.4" stop-color="#742570"/>
<stop offset="0.7" stop-color="#68256D"/>
<stop offset="1" stop-color="#5B256A"/>
</linearGradient>
<linearGradient id="paint22_linear_2_2" x1="303.7" y1="435.1" x2="315.4" y2="435.1" gradientUnits="userSpaceOnUse">
<stop stop-color="#782571"/>
<stop offset="0.4" stop-color="#742570"/>
<stop offset="0.7" stop-color="#68256D"/>
<stop offset="1" stop-color="#5B256A"/>
</linearGradient>
<linearGradient id="paint23_linear_2_2" x1="344.8" y1="397.5" x2="356.5" y2="397.5" gradientUnits="userSpaceOnUse">
<stop stop-color="#782571"/>
<stop offset="0.4" stop-color="#742570"/>
<stop offset="0.7" stop-color="#68256D"/>
<stop offset="1" stop-color="#5B256A"/>
</linearGradient>
<linearGradient id="paint24_linear_2_2" x1="382.2" y1="376.3" x2="393.9" y2="376.3" gradientUnits="userSpaceOnUse">
<stop stop-color="#782571"/>
<stop offset="0.4" stop-color="#742570"/>
<stop offset="0.7" stop-color="#68256D"/>
<stop offset="1" stop-color="#5B256A"/>
</linearGradient>
<linearGradient id="paint25_linear_2_2" x1="399.7" y1="328.2" x2="411.4" y2="328.2" gradientUnits="userSpaceOnUse">
<stop stop-color="#782571"/>
<stop offset="0.4" stop-color="#742570"/>
<stop offset="0.7" stop-color="#68256D"/>
<stop offset="1" stop-color="#5B256A"/>
</linearGradient>
<linearGradient id="paint26_linear_2_2" x1="420" y1="279.5" x2="431.7" y2="279.5" gradientUnits="userSpaceOnUse">
<stop stop-color="#782571"/>
<stop offset="0.4" stop-color="#742570"/>
<stop offset="0.7" stop-color="#68256D"/>
<stop offset="1" stop-color="#5B256A"/>
</linearGradient>
<linearGradient id="paint27_linear_2_2" x1="398.1" y1="233.4" x2="409.8" y2="233.4" gradientUnits="userSpaceOnUse">
<stop stop-color="#782571"/>
<stop offset="0.4" stop-color="#742570"/>
<stop offset="0.7" stop-color="#68256D"/>
<stop offset="1" stop-color="#5B256A"/>
</linearGradient>
<linearGradient id="paint28_linear_2_2" x1="389.7" y1="178.5" x2="401.4" y2="178.5" gradientUnits="userSpaceOnUse">
<stop stop-color="#782571"/>
<stop offset="0.4" stop-color="#742570"/>
<stop offset="0.7" stop-color="#68256D"/>
<stop offset="1" stop-color="#5B256A"/>
</linearGradient>
<linearGradient id="paint29_linear_2_2" x1="117.1" y1="230.6" x2="133.7" y2="230.6" gradientUnits="userSpaceOnUse">
<stop stop-color="#782571"/>
<stop offset="0.4" stop-color="#742570"/>
<stop offset="0.7" stop-color="#68256D"/>
<stop offset="1" stop-color="#5B256A"/>
</linearGradient>
<linearGradient id="paint30_linear_2_2" x1="111.7" y1="324.1" x2="128.2" y2="324.1" gradientUnits="userSpaceOnUse">
<stop stop-color="#782571"/>
<stop offset="0.4" stop-color="#742570"/>
<stop offset="0.7" stop-color="#68256D"/>
<stop offset="1" stop-color="#5B256A"/>
</linearGradient>
<linearGradient id="paint31_linear_2_2" x1="251.7" y1="432.9" x2="268.3" y2="432.9" gradientUnits="userSpaceOnUse">
<stop stop-color="#782571"/>
<stop offset="0.4" stop-color="#742570"/>
<stop offset="0.7" stop-color="#68256D"/>
<stop offset="1" stop-color="#5B256A"/>
</linearGradient>
<linearGradient id="paint32_linear_2_2" x1="346.8" y1="151.9" x2="363.4" y2="151.9" gradientUnits="userSpaceOnUse">
<stop stop-color="#782571"/>
<stop offset="0.4" stop-color="#742570"/>
<stop offset="0.7" stop-color="#68256D"/>
<stop offset="1" stop-color="#5B256A"/>
</linearGradient>
<linearGradient id="paint33_linear_2_2" x1="252.1" y1="124.7" x2="268.7" y2="124.7" gradientUnits="userSpaceOnUse">
<stop stop-color="#782571"/>
<stop offset="0.4" stop-color="#742570"/>
<stop offset="0.7" stop-color="#68256D"/>
<stop offset="1" stop-color="#5B256A"/>
</linearGradient>
<linearGradient id="paint34_linear_2_2" x1="307" y1="125.4" x2="318.7" y2="125.4" gradientUnits="userSpaceOnUse">
<stop stop-color="#782571"/>
<stop offset="0.4" stop-color="#742570"/>
<stop offset="0.7" stop-color="#68256D"/>
<stop offset="1" stop-color="#5B256A"/>
</linearGradient>
<linearGradient id="paint35_linear_2_2" x1="155.2" y1="490" x2="414.3" y2="45.9" gradientUnits="userSpaceOnUse">
<stop stop-color="#782571"/>
<stop offset="0.4" stop-color="#742570"/>
<stop offset="0.7" stop-color="#68256D"/>
<stop offset="1" stop-color="#5B256A"/>
</linearGradient>
</defs>
</svg>
